<svg width="89" height="81" viewBox="0 0 89 81" fill="none" xmlns="http://www.w3.org/2000/svg">
<g clip-path="url(#clip0_265_1017)">
<path d="M37.5433 0.183214C25.9797 1.31941 16.212 9.08955 12.4919 20.1217C11.4107 23.347 11.0808 25.5278 11.0808 29.3762C11.0808 33.2246 11.4107 35.4054 12.4919 38.6307C16.322 49.9927 26.4378 57.7995 38.4229 58.6241L40.2921 58.7524V54.171V49.5895L38.8077 49.4612C29.8464 48.7099 22.5711 42.3875 20.5552 33.5545C20.1338 31.7036 20.1338 27.0488 20.5552 25.1979C22.5711 16.3649 29.8464 10.0425 38.8077 9.29113L40.2921 9.16285V5.57099C40.2921 3.59181 40.2371 1.53932 40.1822 1.00787L40.0539 0.0549316L39.1193 0.0915854C38.6062 0.0915854 37.8914 0.146561 37.5433 0.183214Z" fill="black"/>
<path d="M47.7507 0.989593C47.6774 1.53937 47.6224 3.59186 47.6224 5.57104V9.1629L49.1068 9.29118C55.7591 9.84095 61.4767 13.3962 64.9586 19.1504C67.6159 23.567 68.4589 29.3579 67.1394 34.3975C66.7912 35.7536 65.8749 38.0993 65.3801 38.8873L64.9953 39.5104L60.7804 35.2955L56.5654 31.0805L57.0052 30.3658C58.9661 27.2321 58.4896 23.7319 55.7408 21.0197C53.9998 19.297 51.5808 18.2158 48.4104 17.7577L47.6224 17.6477V26.3891V35.1489L53.1018 40.6283C56.1256 43.652 58.5629 46.181 58.508 46.2726C58.3247 46.5658 56.0156 47.7387 54.5679 48.2701C52.7537 48.9298 51.086 49.2964 49.1068 49.4613L47.6224 49.5896V54.171V58.7525L49.51 58.6242C54.5496 58.276 59.6258 56.5717 63.7308 53.8595C64.867 53.1081 65.3435 52.8882 65.5634 53.0165C65.7283 53.1081 67.0844 54.4093 68.6055 55.9303L71.3543 58.6975H77.6584H83.9442L77.8233 52.4301L71.6842 46.1627L72.6005 44.6966C74.3781 41.8194 75.7159 38.3742 76.4306 34.7823C77.017 31.9052 77.017 26.8473 76.4306 23.9701C75.4043 18.8206 73.3152 14.4407 69.9982 10.464C64.9953 4.48982 57.555 0.714711 49.6199 0.128283L47.8607 0L47.7507 0.989593Z" fill="#FF3709"/>
<path d="M3.3659 70.4261C1.33174 71.2141 0.15889 72.8634 0.012284 75.1175C-0.134322 77.5731 1.03853 79.6073 3.14599 80.5052C5.03355 81.3299 7.4892 80.9451 8.68038 79.6623C9.23015 79.0575 9.24848 79.0025 8.77201 78.7093C8.42382 78.5077 8.29554 78.5444 7.65413 79.0942C6.49961 80.0838 5.05187 80.2304 3.5125 79.5157C1.33174 78.4894 0.488754 75.539 1.69826 73.2116C2.70617 71.2874 5.36341 70.5543 7.17766 71.7089C8.20391 72.3503 8.25889 72.3686 8.66205 71.9104C8.97359 71.5806 8.95527 71.5439 8.35051 71.0858C6.97608 70.0412 5.05187 69.7847 3.3659 70.4261Z" fill="black"/>
<path d="M24.642 70.426C23.3959 70.9025 22.2413 72.0937 21.7649 73.3582C21.4533 74.1462 21.3984 74.6593 21.4533 75.7405C21.5816 77.8113 22.4796 79.2408 24.2389 80.1937C24.9352 80.5602 25.2834 80.5969 28.802 80.6518L32.5954 80.7068V80.2487C32.5954 79.7905 32.5588 79.7722 31.3493 79.7722C30.6529 79.7722 30.0481 79.7172 29.9932 79.6622C29.9198 79.6073 30.1947 79.2408 30.5796 78.8559C31.4959 77.9396 31.954 76.5102 31.8074 74.8975C31.5325 71.324 27.9956 69.1249 24.642 70.426ZM28.8936 71.7822C30.5246 72.9 31.1293 75.5023 30.2131 77.4632C28.9669 80.0837 25.1368 80.4503 23.4325 78.1046C21.8931 75.9604 22.5529 72.6618 24.7703 71.5256C25.9248 70.9392 27.8674 71.0675 28.8936 71.7822Z" fill="black"/>
<path d="M10.9714 75.4656V80.6885H13.9036H16.8357V80.2304V79.7722H14.4533H12.071V75.3007C12.071 72.8451 12.016 70.7009 11.961 70.536C11.9061 70.3711 11.6495 70.2428 11.4113 70.2428H10.9714V75.4656Z" fill="black"/>
<path d="M18.3022 75.4656V80.6885H18.852H19.4018V75.7589C19.4018 73.0466 19.3468 70.7009 19.2918 70.536C19.2369 70.3711 18.9803 70.2428 18.7421 70.2428H18.3022V75.4656Z" fill="black"/>
<path d="M34.2452 74.2195C34.2452 77.7197 34.3002 78.3062 34.5934 78.9659C35.583 81.1467 38.9183 81.6964 40.6593 79.9555C41.0441 79.5706 41.4473 78.9292 41.5572 78.5444C41.6672 78.1596 41.7588 76.162 41.7588 74.0363V70.2245L41.264 70.2795L40.7509 70.3344L40.6593 74.2745C40.586 77.6831 40.5127 78.3062 40.2378 78.7277C39.1932 80.3403 36.8109 80.3403 35.7663 78.7277C35.4914 78.3062 35.4181 77.6831 35.3448 74.2745L35.2532 70.3344L34.7584 70.2795L34.2452 70.2245V74.2195Z" fill="black"/>
<path d="M44.5074 75.4656V80.6885H47.8061H51.1047V80.2304V79.7722H48.3559H45.607V77.848V75.9238H47.6778C50.2068 75.9238 50.555 75.8322 50.555 75.2641V74.8242H48.081H45.607V73.0833V71.3423H48.2642H50.9215V70.7926V70.2428H47.7145H44.5074V75.4656Z" fill="black"/>
<path d="M52.9006 70.3527C52.809 70.426 52.754 72.7901 52.754 75.5939V80.6885H53.7619H54.7699V78.4894V76.2903H55.3746C55.961 76.2903 56.016 76.3636 57.1522 78.4894L58.3434 80.6885H59.5162C60.6708 80.6885 60.6708 80.6885 60.4142 80.267C60.2676 80.0471 59.6629 79.0575 59.0764 78.0679C58.2151 76.6018 58.0502 76.2353 58.2701 76.0887C58.4167 75.9971 58.6183 75.9238 58.7282 75.9238C58.8199 75.9238 59.1864 75.6305 59.5346 75.2824C60.0843 74.7143 60.1576 74.5127 60.2309 73.4864C60.3592 71.1591 59.2597 70.426 55.4296 70.2794C54.1101 70.2428 52.9739 70.2611 52.9006 70.3527ZM57.7936 72.3319C58.1235 72.5518 58.2518 72.7901 58.2518 73.2299C58.2518 74.3111 57.702 74.641 55.9794 74.641H54.7699V73.2482V71.8371L56.0527 71.9287C56.7857 71.9837 57.5187 72.1487 57.7936 72.3319Z" fill="black"/>
<path d="M65.234 70.5726C65.0507 70.9208 61.2756 79.534 60.9824 80.267C60.8358 80.6701 60.8541 80.6885 61.8803 80.6885H62.9249L63.3831 79.534L63.8412 78.3977L66.0586 78.3428L68.2944 78.2878L68.7525 79.4423L69.2107 80.5968L70.3102 80.6518L71.4281 80.7068L69.1923 75.5206L66.9566 70.3344L66.1869 70.2794C65.5821 70.2428 65.3806 70.2978 65.234 70.5726ZM66.9016 74.7876L67.5613 76.5652L66.8466 76.6202C66.4618 76.6568 65.7837 76.6568 65.3439 76.6202L64.5559 76.5652L65.2706 74.6776C65.6738 73.6514 66.0586 72.845 66.1136 72.9C66.1686 72.9733 66.5168 73.8163 66.9016 74.7876Z" fill="black"/>
<path d="M72.6744 70.3711C72.6011 70.4261 72.5461 72.7901 72.5461 75.5939V80.6885H73.5541H74.562V78.581V76.4736H76.7427C77.9523 76.4736 78.9785 76.4003 79.0518 76.3086C79.1068 76.1987 79.1068 75.7955 79.0335 75.3923L78.9052 74.641H76.7427H74.562V73.3582V72.0754H76.9443H79.3267V71.1591V70.2428H76.0647C74.2688 70.2428 72.7294 70.2978 72.6744 70.3711Z" fill="black"/>
<path d="M79.949 70.6826C79.8941 70.9209 79.8757 71.324 79.9124 71.5439C79.9674 71.9654 80.0407 71.9838 81.58 72.0387L83.1744 72.0937V76.3819V80.6885H84.0907H85.007V76.3819V72.0754H86.5463C87.4076 72.0754 88.1407 72.0021 88.214 71.9104C88.2689 71.8005 88.2689 71.3973 88.1956 70.9942L88.0674 70.2428H84.0723H80.059L79.949 70.6826Z" fill="black"/>
</g>
<defs>
<clipPath id="clip0_265_1017">
<rect width="88.3303" height="81" fill="white"/>
</clipPath>
</defs>
</svg>
